# Blender v2.76 (sub 0) OBJ File: ''
# www.blender.org
mtllib swordfront.mtl
o Cube.001
v 0.053798 -0.053798 0.053798
v -0.053798 -0.053798 0.053798
v -0.053798 -0.053798 -0.053798
v -0.053798 0.053798 -0.053798
v -0.053798 0.053798 0.053798
v 0.053798 0.053798 0.053798
v 0.053798 0.053798 -0.053798
v 0.053798 -0.053798 -0.053798
vn 0.000000 -1.000000 -0.000000
vn 0.000000 1.000000 0.000000
vn 1.000000 -0.000000 0.000000
vn 0.000000 -0.000000 1.000000
vn -1.000000 0.000000 0.000000
vn 0.000000 0.000000 -1.000000
g Cube.001_Cube.001_Material.001
usemtl Material.001
s 1
f 1//1 2//1 3//1
f 4//2 5//2 6//2
s 2
f 7//3 6//3 1//3
s 4
f 6//4 5//4 2//4
s 2
f 5//5 4//5 3//5
s 4
f 8//6 3//6 4//6
s 1
f 8//1 1//1 3//1
f 7//2 4//2 6//2
s 2
f 8//3 7//3 1//3
s 4
f 1//4 6//4 2//4
s 2
f 2//5 5//5 3//5
s 4
f 7//6 8//6 4//6
